<svg xmlns="http://www.w3.org/2000/svg" xmlns:xlink="http://www.w3.org/1999/xlink" width="43.079" height="43.416" viewBox="0 0 43.079 43.416">
  <defs>
    <linearGradient id="linear-gradient" x1="0.981" y1="0.044" x2="-0.091" y2="1.255" gradientUnits="objectBoundingBox">
      <stop offset="0" stop-color="#a11e39"/>
      <stop offset="1" stop-color="#0c3a77"/>
    </linearGradient>
    <linearGradient id="linear-gradient-2" x1="0.953" y1="0.054" x2="-0.031" y2="1.061" xlink:href="#linear-gradient"/>
  </defs>
  <g id="logoTJ" transform="translate(2.449 2.449)">
    <g id="Union_2" data-name="Union 2" transform="matrix(-0.259, -0.966, 0.966, -0.259, 9.668, 38.517)" stroke-linecap="square" fill="url(#linear-gradient)">
      <path d="M3.068,26.45A10.4,10.4,0,0,1,0,19.044H5.713a4.761,4.761,0,1,0,9.522,0V5.713H6.189V0H29.995V5.713H20.948v13.24c0,.03,0,.06,0,.09A10.474,10.474,0,0,1,3.068,26.45Z" stroke="none"/>
      <path d="M 10.47413730621338 29.51817512512207 C 13.27177715301514 29.51817512512207 15.90230655670166 28.42850494384766 17.88066673278809 26.45014381408691 C 19.8590259552002 24.47221565246582 20.94868659973145 21.84210395812988 20.94868659973145 19.04403495788574 C 20.94868659973145 19.0138053894043 20.94851684570312 18.98373413085938 20.94826698303223 18.95355415344238 L 20.94826698303223 5.713124752044678 L 29.99465751647949 5.713124752044678 L 29.99465751647949 4.701538273366168e-06 L 6.189187049865723 4.701538273366168e-06 L 6.189187049865723 5.713124752044678 L 15.23513698577881 5.713124752044678 L 15.23513698577881 19.04403495788574 C 15.23513698577881 21.66942405700684 13.09909725189209 23.80504417419434 10.47413730621338 23.80504417419434 C 9.204506874084473 23.80504417419434 8.00943660736084 23.30927467346191 7.109166622161865 22.40900421142578 C 6.208896636962891 21.50873374938965 5.713126659393311 20.31409454345703 5.713126659393311 19.04403495788574 L -3.149108806610457e-06 19.04403495788574 C -3.149108806610457e-06 21.84210395812988 1.089666843414307 24.47221565246582 3.068026781082153 26.45014381408691 C 5.045957088470459 28.42850494384766 7.676066875457764 29.51817512512207 10.47413730621338 29.51817512512207 M 10.47413730621338 31.51817512512207 C 7.141956806182861 31.51817512512207 4.009446620941162 30.22050476074219 1.653656840324402 27.86420440673828 C -0.7023331522941589 25.50872421264648 -2.000003099441528 22.3762149810791 -2.000003099441528 19.04403495788574 L -2.000003099441528 17.04403495788574 L 7.713126659393311 17.04403495788574 L 7.713126659393311 19.04403495788574 C 7.713126659393311 19.77949523925781 8.000876426696777 20.47229385375977 8.52337646484375 20.99479484558105 C 9.045876502990723 21.51729393005371 9.738677024841309 21.80504417419434 10.47413730621338 21.80504417419434 C 11.99655723571777 21.80504417419434 13.23513698577881 20.56646537780762 13.23513698577881 19.04403495788574 L 13.23513698577881 7.713124752044678 L 4.189187049865723 7.713124752044678 L 4.189187049865723 -1.999995350837708 L 31.99465751647949 -1.999995350837708 L 31.99465751647949 7.713124752044678 L 22.94826698303223 7.713124752044678 L 22.94826698303223 18.94561004638672 C 22.94852638244629 18.97842597961426 22.94868659973145 19.01114463806152 22.94868659973145 19.04403495788574 C 22.94868659973145 22.37622451782227 21.65101623535156 25.50873374938965 19.29472732543945 27.86451530456543 C 16.93867683410645 30.22055435180664 13.806077003479 31.51817512512207 10.47413730621338 31.51817512512207 Z" stroke="none" fill="rgba(238,234,224,0.64)"/>
    </g>
    <g id="Union_3" data-name="Union 3" transform="matrix(-0.259, -0.966, 0.966, -0.259, 8.715, 37.565)" stroke-linecap="square" fill="url(#linear-gradient-2)">
      <path d="M 10.47413730621338 30.51817512512207 C 7.409106731414795 30.51817512512207 4.527746677398682 29.32454490661621 2.360846757888794 27.15717506408691 C 0.1936268508434296 24.99042510986328 -1.000003099441528 22.10906410217285 -1.000003099441528 19.04403495788574 L -1.000003099441528 18.04403495788574 L -3.149108806610457e-06 18.04403495788574 L 5.713126659393311 18.04403495788574 L 6.713126659393311 18.04403495788574 L 6.713126659393311 19.04403495788574 C 6.713126659393311 20.04660415649414 7.104897022247314 20.99052429199219 7.816277027130127 21.70189476013184 C 8.527647018432617 22.41327476501465 9.471567153930664 22.80504417419434 10.47413730621338 22.80504417419434 C 12.5479564666748 22.80504417419434 14.23513698577881 21.11786460876465 14.23513698577881 19.04403495788574 L 14.23513698577881 6.713124752044678 L 6.189187049865723 6.713124752044678 L 5.189187049865723 6.713124752044678 L 5.189187049865723 5.713124752044678 L 5.189187049865723 4.701538273366168e-06 L 5.189187049865723 -0.9999952912330627 L 6.189187049865723 -0.9999952912330627 L 29.99465751647949 -0.9999952912330627 L 30.99465751647949 -0.9999952912330627 L 30.99465751647949 4.701538273366168e-06 L 30.99465751647949 5.713124752044678 L 30.99465751647949 6.713124752044678 L 29.99465751647949 6.713124752044678 L 21.94826698303223 6.713124752044678 L 21.94826698303223 18.94901466369629 C 21.94852066040039 18.98069953918457 21.94868659973145 19.01228332519531 21.94868659973145 19.04403495788574 C 21.94868659973145 22.10907554626465 20.75506591796875 24.99043464660645 18.58769607543945 27.15732383728027 C 16.42044639587402 29.32457542419434 13.53896713256836 30.51817512512207 10.47413730621338 30.51817512512207 Z" stroke="none"/>
      <path d="M 10.47413730621338 29.51817512512207 C 13.27177715301514 29.51817512512207 15.90230655670166 28.42850494384766 17.88066673278809 26.45014381408691 C 19.8590259552002 24.47221565246582 20.94868659973145 21.84210395812988 20.94868659973145 19.04403495788574 C 20.94868659973145 19.0138053894043 20.94851684570312 18.98373413085938 20.94826698303223 18.95355415344238 L 20.94826698303223 5.713124752044678 L 29.99465751647949 5.713124752044678 L 29.99465751647949 4.701538273366168e-06 L 6.189187049865723 4.701538273366168e-06 L 6.189187049865723 5.713124752044678 L 15.23513698577881 5.713124752044678 L 15.23513698577881 19.04403495788574 C 15.23513698577881 21.66942405700684 13.09909725189209 23.80504417419434 10.47413730621338 23.80504417419434 C 9.204506874084473 23.80504417419434 8.00943660736084 23.30927467346191 7.109166622161865 22.40900421142578 C 6.208896636962891 21.50873374938965 5.713126659393311 20.31409454345703 5.713126659393311 19.04403495788574 L -3.149108806610457e-06 19.04403495788574 C -3.149108806610457e-06 21.84210395812988 1.089666843414307 24.47221565246582 3.068026781082153 26.45014381408691 C 5.045957088470459 28.42850494384766 7.676066875457764 29.51817512512207 10.47413730621338 29.51817512512207 M 10.47413730621338 31.51817512512207 C 7.141956806182861 31.51817512512207 4.009446620941162 30.22050476074219 1.653656840324402 27.86420440673828 C -0.7023331522941589 25.50872421264648 -2.000003099441528 22.3762149810791 -2.000003099441528 19.04403495788574 L -2.000003099441528 17.04403495788574 L 7.713126659393311 17.04403495788574 L 7.713126659393311 19.04403495788574 C 7.713126659393311 19.77949523925781 8.000876426696777 20.47229385375977 8.52337646484375 20.99479484558105 C 9.045876502990723 21.51729393005371 9.738677024841309 21.80504417419434 10.47413730621338 21.80504417419434 C 11.99655723571777 21.80504417419434 13.23513698577881 20.56646537780762 13.23513698577881 19.04403495788574 L 13.23513698577881 7.713124752044678 L 4.189187049865723 7.713124752044678 L 4.189187049865723 -1.999995350837708 L 31.99465751647949 -1.999995350837708 L 31.99465751647949 7.713124752044678 L 22.94826698303223 7.713124752044678 L 22.94826698303223 18.94561004638672 C 22.94852638244629 18.97842597961426 22.94868659973145 19.01114463806152 22.94868659973145 19.04403495788574 C 22.94868659973145 22.37622451782227 21.65101623535156 25.50873374938965 19.29472732543945 27.86451530456543 C 16.93867683410645 30.22055435180664 13.806077003479 31.51817512512207 10.47413730621338 31.51817512512207 Z" stroke="none" fill="#eeeae0"/>
    </g>
    <g id="Union_4" data-name="Union 4" transform="matrix(-0.259, -0.966, 0.966, -0.259, 7.763, 36.612)" fill="#eb6240" stroke-linecap="square">
      <path d="M 10.47413730621338 30.51817512512207 C 7.409106731414795 30.51817512512207 4.527746677398682 29.32454490661621 2.360846757888794 27.15717506408691 C 0.1936268508434296 24.99042510986328 -1.000003099441528 22.10906410217285 -1.000003099441528 19.04403495788574 L -1.000003099441528 18.04403495788574 L -3.149108806610457e-06 18.04403495788574 L 5.713126659393311 18.04403495788574 L 6.713126659393311 18.04403495788574 L 6.713126659393311 19.04403495788574 C 6.713126659393311 20.04660415649414 7.104897022247314 20.99052429199219 7.816277027130127 21.70189476013184 C 8.527647018432617 22.41327476501465 9.471567153930664 22.80504417419434 10.47413730621338 22.80504417419434 C 12.5479564666748 22.80504417419434 14.23513698577881 21.11786460876465 14.23513698577881 19.04403495788574 L 14.23513698577881 6.713124752044678 L 6.189187049865723 6.713124752044678 L 5.189187049865723 6.713124752044678 L 5.189187049865723 5.713124752044678 L 5.189187049865723 4.701538273366168e-06 L 5.189187049865723 -0.9999952912330627 L 6.189187049865723 -0.9999952912330627 L 29.99465751647949 -0.9999952912330627 L 30.99465751647949 -0.9999952912330627 L 30.99465751647949 4.701538273366168e-06 L 30.99465751647949 5.713124752044678 L 30.99465751647949 6.713124752044678 L 29.99465751647949 6.713124752044678 L 21.94826698303223 6.713124752044678 L 21.94826698303223 18.94901466369629 C 21.94852066040039 18.98069953918457 21.94868659973145 19.01228332519531 21.94868659973145 19.04403495788574 C 21.94868659973145 22.10907554626465 20.75506591796875 24.99043464660645 18.58769607543945 27.15732383728027 C 16.42044639587402 29.32457542419434 13.53896713256836 30.51817512512207 10.47413730621338 30.51817512512207 Z" stroke="none"/>
      <path d="M 10.47413730621338 29.51817512512207 C 13.27177715301514 29.51817512512207 15.90230655670166 28.42850494384766 17.88066673278809 26.45014381408691 C 19.8590259552002 24.47221565246582 20.94868659973145 21.84210395812988 20.94868659973145 19.04403495788574 C 20.94868659973145 19.0138053894043 20.94851684570312 18.98373413085938 20.94826698303223 18.95355415344238 L 20.94826698303223 5.713124752044678 L 29.99465751647949 5.713124752044678 L 29.99465751647949 4.701538273366168e-06 L 6.189187049865723 4.701538273366168e-06 L 6.189187049865723 5.713124752044678 L 15.23513698577881 5.713124752044678 L 15.23513698577881 19.04403495788574 C 15.23513698577881 21.66942405700684 13.09909725189209 23.80504417419434 10.47413730621338 23.80504417419434 C 9.204506874084473 23.80504417419434 8.00943660736084 23.30927467346191 7.109166622161865 22.40900421142578 C 6.208896636962891 21.50873374938965 5.713126659393311 20.31409454345703 5.713126659393311 19.04403495788574 L -3.149108806610457e-06 19.04403495788574 C -3.149108806610457e-06 21.84210395812988 1.089666843414307 24.47221565246582 3.068026781082153 26.45014381408691 C 5.045957088470459 28.42850494384766 7.676066875457764 29.51817512512207 10.47413730621338 29.51817512512207 M 10.47413730621338 31.51817512512207 C 7.141956806182861 31.51817512512207 4.009446620941162 30.22050476074219 1.653656840324402 27.86420440673828 C -0.7023331522941589 25.50872421264648 -2.000003099441528 22.3762149810791 -2.000003099441528 19.04403495788574 L -2.000003099441528 17.04403495788574 L 7.713126659393311 17.04403495788574 L 7.713126659393311 19.04403495788574 C 7.713126659393311 19.77949523925781 8.000876426696777 20.47229385375977 8.52337646484375 20.99479484558105 C 9.045876502990723 21.51729393005371 9.738677024841309 21.80504417419434 10.47413730621338 21.80504417419434 C 11.99655723571777 21.80504417419434 13.23513698577881 20.56646537780762 13.23513698577881 19.04403495788574 L 13.23513698577881 7.713124752044678 L 4.189187049865723 7.713124752044678 L 4.189187049865723 -1.999995350837708 L 31.99465751647949 -1.999995350837708 L 31.99465751647949 7.713124752044678 L 22.94826698303223 7.713124752044678 L 22.94826698303223 18.94561004638672 C 22.94852638244629 18.97842597961426 22.94868659973145 19.01114463806152 22.94868659973145 19.04403495788574 C 22.94868659973145 22.37622451782227 21.65101623535156 25.50873374938965 19.29472732543945 27.86451530456543 C 16.93867683410645 30.22055435180664 13.806077003479 31.51817512512207 10.47413730621338 31.51817512512207 Z" stroke="none" fill="#eeeae0"/>
    </g>
  </g>
</svg>
